<svg xmlns="http://www.w3.org/2000/svg" viewBox="0 0 48 48">
  <path fill="#EA4335" d="M24 9.5c3.14 0 5.97 1.08 8.2 2.84l6.1-6.1C34.2 2.4 29.4 0 24 0 14.6 0 6.6 5.4 2.7 13.3l7.1 5.5C12 13.3 17.6 9.5 24 9.5z"/>
  <path fill="#4285F4" d="M46.1 24.5c0-1.6-.1-2.7-.4-4H24v7.6h12.8c-.3 2-1.6 5-4.5 7l6.9 5.3c4-3.7 6.9-9.2 6.9-15.9z"/>
  <path fill="#FBBC05" d="M9.8 28.8c-.5-1.4-.8-2.9-.8-4.3s.3-2.9.8-4.3l-7.1-5.5C.9 17.9 0 20.9 0 24.5s.9 6.6 2.7 9.8l7.1-5.5z"/>
  <path fill="#34A853" d="M24 48c6.5 0 12-2.1 16-5.7l-6.9-5.3c-1.8 1.3-4.3 2.2-9.1 2.2-6.4 0-12-3.8-14.2-9.3l-7.1 5.5C6.6 42.6 14.6 48 24 48z"/>
</svg>